<?xml version="1.0" standalone="no"?>
<!DOCTYPE svg PUBLIC "-//W3C//DTD SVG 20010904//EN"
 "http://www.w3.org/TR/2001/REC-SVG-20010904/DTD/svg10.dtd">
<svg version="1.0" xmlns="http://www.w3.org/2000/svg"
 width="222.000000pt" height="222.000000pt" viewBox="0 0 222.000000 222.000000"
 preserveAspectRatio="xMidYMid meet">

<g transform="translate(0.000000,222.000000) scale(0.100000,-0.100000)"
fill="#000000" stroke="none">
<path d="M63 2172 c-61 -46 -62 -48 -63 -95 l0 -49 53 45 c28 25 85 68 126 96
l75 51 -65 0 c-61 0 -67 -3 -126 -48z"/>
<path d="M415 2172 c-122 -64 -213 -126 -322 -222 -62 -54 -93 -88 -93 -102 0
-17 13 -9 67 44 127 122 280 224 442 295 75 32 75 33 36 33 -28 -1 -67 -15
-130 -48z"/>
<path d="M1710 2181 c156 -69 297 -164 428 -286 45 -42 82 -70 82 -63 0 18
-123 137 -205 200 -133 101 -299 188 -357 188 -28 0 -21 -6 52 -39z"/>
<path d="M1974 2207 c29 -18 166 -122 209 -157 l37 -32 0 45 c0 45 -2 47 -71
101 -69 54 -73 56 -133 55 -51 0 -58 -2 -42 -12z"/>
<path d="M899 2195 c-319 -52 -559 -172 -791 -394 l-108 -103 0 -849 0 -849
1110 0 1110 0 0 837 0 837 -117 116 c-214 211 -430 329 -713 390 -126 27 -371
35 -491 15z m542 -411 c25 -12 72 -45 103 -73 47 -43 62 -51 95 -51 45 0 51
-9 51 -79 0 -58 -15 -79 -60 -83 l-35 -3 -3 -87 c-3 -86 -3 -87 -38 -116 -19
-16 -63 -43 -96 -61 -49 -25 -73 -31 -124 -31 -82 0 -92 5 -104 50 -9 32 -18
42 -56 60 -38 19 -56 21 -102 16 -70 -8 -103 -31 -120 -82 -19 -56 -28 -315
-13 -387 21 -98 85 -212 163 -289 38 -37 75 -68 83 -68 31 0 24 23 -22 74
-106 115 -163 278 -166 471 l-2 120 387 3 c361 2 388 1 396 -15 14 -27 -3
-220 -28 -309 -28 -103 -79 -199 -146 -272 -30 -34 -51 -63 -47 -65 5 -3 28
-8 53 -12 71 -10 79 -15 95 -45 8 -16 15 -31 15 -35 0 -3 -281 -5 -625 -5
-344 0 -625 2 -625 4 0 19 25 61 61 102 71 82 85 126 146 459 63 349 65 328
-30 358 -30 9 -61 25 -70 35 -19 21 -57 167 -57 219 0 48 38 129 78 166 58 55
75 57 452 54 328 -2 347 -3 391 -23z"/>
<path d="M658 1483 c-6 -7 -8 -20 -4 -28 5 -13 59 -15 447 -13 284 2 443 7
446 13 10 32 -11 34 -446 37 -334 2 -435 0 -443 -9z"/>
<path d="M1250 1340 c-26 -16 9 -21 150 -18 96 2 135 7 138 16 3 9 -28 12
-135 12 -76 0 -145 -4 -153 -10z"/>
</g>
</svg>
