<svg width="480" height="270" viewBox="0 0 480 270" fill="none" xmlns="http://www.w3.org/2000/svg">
<path d="M342.152 267.301C341.604 267.017 341.878 265.171 341.878 264.177C342.289 257.643 342.701 251.11 343.249 244.576C343.386 243.582 344.071 242.304 344.893 241.878C346.263 241.168 347.085 242.304 347.496 243.724C349.415 248.979 351.47 254.377 353.526 259.632C353.937 260.484 354.348 261.478 354.896 262.898C356.677 258.495 358.047 254.661 359.555 250.826C360.514 248.269 361.336 245.713 362.569 243.298C362.98 242.304 363.391 241.878 365.036 241.878C366.269 242.02 366.269 243.014 366.406 243.866C366.954 250.684 367.502 257.501 368.05 264.461C368.05 265.455 367.639 267.443 367.228 267.443C366.954 267.443 366.817 267.443 366.543 267.443C365.995 267.443 365.721 265.029 365.584 263.751C365.173 260.342 365.036 256.791 364.899 253.382C364.762 251.678 364.488 248.695 364.351 248.411C364.077 248.127 363.802 248.127 363.665 248.411C363.254 248.553 356.54 267.159 355.581 267.443C355.17 267.585 354.622 267.301 354.348 266.875C352.977 265.455 347.633 248.127 346.263 248.411C345.578 248.695 345.578 254.377 345.304 257.359C345.167 260.91 344.893 267.585 343.797 267.585C342.975 267.443 342.701 267.443 342.152 267.301Z" fill="#AC153A"/>
<path d="M195.398 267.159C194.713 266.875 192.795 260.484 191.561 256.933C190.191 252.814 189.095 248.553 187.999 244.292C187.862 243.582 187.999 242.02 188.41 241.736C189.643 241.168 190.191 242.02 190.465 243.298C191.835 248.411 193.206 253.382 194.713 258.495C194.987 259.348 195.398 260.2 196.083 261.62C197.728 256.223 199.235 251.536 200.742 246.849C201.016 245.855 201.29 244.861 201.701 244.008C202.112 243.156 202.935 241.878 203.62 242.02C204.305 242.02 205.401 243.014 205.675 243.866C206.908 247.559 208.005 251.252 209.101 254.945C209.786 257.075 210.471 259.064 211.704 261.194C212.526 258.353 213.349 255.655 214.171 252.814C214.993 249.832 215.815 246.707 216.774 243.724C217.048 242.872 217.87 241.594 218.83 241.736C220.337 241.594 219.378 243.582 219.241 244.434C217.322 251.394 215.267 258.211 213.212 265.171C212.663 267.301 211.978 267.159 211.43 267.159C210.882 267.159 210.197 265.881 209.923 265.171C208.142 259.916 206.497 254.803 204.716 249.548C204.442 248.695 203.894 247.843 203.346 246.423C201.29 252.672 199.235 258.211 197.728 263.893C197.317 265.171 197.317 266.023 196.768 267.159C196.357 267.301 195.809 267.301 195.398 267.159Z" fill="#AC153A"/>
<path d="M67.5535 267.728C66.7314 267.585 65.3611 267.301 63.9909 266.165C60.1541 262.898 58.5098 258.922 58.6469 254.093C58.6469 249.264 60.1541 245.003 64.5389 242.446C68.9238 239.89 76.8712 240.742 79.6117 247.843C81.9412 254.093 80.2969 260.768 76.3231 265.171C75.501 266.165 74.4048 266.875 73.1716 267.301C70.7051 268.012 68.3757 267.728 67.5535 267.728ZM77.8304 253.809C77.6934 252.956 77.5564 251.536 77.2823 250.116C76.5972 246.707 73.5826 244.008 70.431 243.724C67.1424 243.44 64.2649 245.145 62.7576 248.411C61.1133 251.678 61.2503 255.087 62.0725 258.353C63.4427 263.751 68.9238 266.307 73.3086 263.893C76.7342 261.904 77.6934 258.353 77.8304 253.809Z" fill="#AC153A"/>
<path d="M87.2852 267.301C86.463 267.301 86.463 265.313 86.463 264.177C86.326 257.501 86.463 250.968 86.326 244.292C86.326 242.162 87.1481 241.452 89.0665 241.594C91.2589 241.736 93.4513 241.594 95.6437 242.02C98.5213 242.588 100.029 244.719 100.44 247.701C100.851 250.684 99.7545 252.814 97.014 254.519C96.4659 254.803 95.0956 255.371 95.0956 255.797C95.0956 256.649 98.3842 260.768 100.851 264.319C101.399 265.029 101.81 266.449 101.399 267.301C101.262 267.727 99.6175 267.585 99.2064 267.159C98.7953 267.159 94.6845 260.2 92.2181 256.649C91.807 256.081 90.5738 255.655 89.8886 255.797C89.4776 255.797 88.9295 257.075 88.9295 257.785C88.7924 259.774 89.0665 261.904 88.7925 263.893C88.6554 265.029 88.6554 267.159 87.4222 267.159C87.6962 267.301 87.4222 267.301 87.2852 267.301ZM89.2035 248.837C89.2035 253.382 89.2035 253.382 92.0811 253.382C95.7807 253.382 97.8361 251.678 97.8361 248.695C97.8361 245.855 95.7807 244.292 92.0811 244.292C89.2035 244.15 89.2035 244.292 89.2035 248.837Z" fill="#AC153A"/>
<path d="M373.942 267.301C372.846 267.301 372.983 266.449 373.257 265.739C375.724 258.78 378.738 250.542 381.479 243.582C381.753 242.73 382.849 241.736 383.534 241.594C384.219 241.594 385.315 242.588 385.589 243.44C388.33 250.258 390.933 257.217 393.537 264.177C393.811 265.029 394.496 267.159 393.263 267.159C392.715 267.159 392.715 267.159 392.167 267.159C391.482 267.017 391.207 266.023 391.07 265.313C390.522 262.898 389.7 259.916 388.056 258.922C386.275 257.785 383.26 258.637 380.931 258.495C378.875 258.353 378.053 259.348 377.368 261.194C376.546 263.324 375.176 267.301 374.49 267.301C374.353 267.301 374.079 267.301 373.942 267.301ZM379.286 256.507C381.753 256.365 384.904 256.081 387.645 256.365C386.275 252.814 385.041 249.406 383.945 246.281C383.808 245.997 383.26 246.139 383.123 246.423C381.89 249.548 380.657 252.956 379.286 256.507Z" fill="#AC153A"/>
<path d="M222.118 267.301C220.748 267.301 221.844 265.029 222.118 264.177C224.585 257.217 227.325 250.258 229.929 243.298C230.203 242.588 231.162 241.594 231.847 241.594C232.532 241.594 233.491 242.446 233.765 243.156C236.506 250.116 238.972 257.217 241.576 264.319C241.85 265.171 242.124 266.023 241.987 266.733C241.85 267.159 240.617 267.301 240.343 267.017C239.657 266.023 238.835 263.751 237.876 260.91C237.191 259.206 236.232 258.353 234.45 258.637C232.806 258.78 231.025 258.78 229.381 258.637C227.325 258.353 226.503 259.49 225.818 261.194C224.996 263.324 223.763 267.301 222.803 267.301C222.666 267.301 222.255 267.301 222.118 267.301ZM235.958 256.081C236.095 255.797 233.628 249.548 232.395 246.281C232.121 245.855 231.573 246.139 231.436 246.281C230.34 249.406 227.599 255.797 227.873 256.081C229.518 256.649 235.684 256.507 235.958 256.081Z" fill="#AC153A"/>
<path d="M173.748 267.159C170.871 267.017 167.856 266.875 164.842 267.017C162.649 267.017 161.827 266.307 161.827 263.893C161.964 257.501 161.964 251.11 161.827 244.719C161.827 242.304 162.649 241.594 164.842 241.736C167.445 241.878 171.008 241.736 173.611 241.878C174.296 241.878 174.57 242.162 174.57 243.014C174.57 243.582 174.296 244.15 173.611 244.292C171.556 244.435 168.404 244.435 166.349 244.292C164.979 244.292 164.293 244.719 164.431 246.281C164.431 246.423 164.431 246.565 164.431 246.849C164.293 252.672 164.293 252.672 169.912 252.672C170.186 252.672 171.008 252.672 171.282 252.672C172.104 252.672 172.652 252.672 172.652 253.809C172.652 254.945 172.241 254.945 171.556 255.087C170.186 255.229 168.13 255.229 166.76 255.087C164.842 254.945 164.293 255.797 164.431 257.643C164.568 259.064 164.568 260.342 164.431 261.762C164.293 263.893 164.842 264.745 167.034 264.603C168.815 264.461 170.597 264.603 172.515 264.603C175.393 264.603 175.256 265.029 175.256 266.023C175.256 266.733 174.981 267.017 173.748 267.159Z" fill="#AC153A"/>
<path d="M316.94 266.875C315.844 266.733 315.569 266.449 314.884 266.307C314.199 266.023 314.062 265.455 314.062 264.745C314.336 263.609 317.214 264.319 318.721 264.603C321.736 265.171 324.339 264.035 325.024 261.62C325.709 259.49 324.339 257.359 321.599 255.939C319.954 255.087 318.31 254.377 316.803 253.382C314.473 251.82 313.514 248.837 314.336 246.281C315.158 243.582 317.488 241.736 320.228 241.878C321.873 241.878 323.517 242.02 325.024 242.446C325.709 242.73 327.08 243.866 326.669 244.719C326.395 245.003 326.257 245.287 325.846 245.145C324.75 245.145 323.928 244.576 322.832 244.292C320.365 243.582 317.762 244.576 317.214 246.565C316.529 248.411 316.94 249.974 318.584 250.968C320.091 251.962 321.599 252.672 323.106 253.382C325.846 254.661 328.039 256.649 328.039 260.058C328.039 263.325 326.669 265.881 323.517 267.017C323.243 267.159 321.599 267.301 321.051 267.159C319.132 267.017 318.858 267.159 316.94 266.875Z" fill="#AC153A"/>
<path d="M251.716 267.301C251.442 267.159 251.031 265.739 251.168 263.893C251.305 262.33 250.756 254.661 246.235 247.701C244.59 245.429 242.672 243.014 242.672 242.162C242.672 240.742 244.453 241.168 245.275 242.588C247.742 245.713 250.482 253.098 252.127 253.24C253.908 253.24 260.074 241.594 261.033 241.31C261.719 240.884 262.404 241.594 262.13 242.162C260.348 245.145 258.841 248.411 256.923 251.252C254.319 254.803 253.497 258.638 253.908 262.898C254.045 264.319 254.045 267.301 253.36 267.301C252.812 267.443 251.853 267.443 251.716 267.301Z" fill="#AC153A"/>
<path d="M43.4371 267.301C42.8889 267.301 42.8889 264.603 42.8889 263.325C42.8889 257.075 42.8889 250.684 42.8889 244.435C42.8889 242.446 43.4371 241.452 45.4924 241.594C48.0959 241.736 50.6994 241.594 53.3029 241.736C53.988 241.736 55.2212 242.304 55.2212 242.872C55.2212 243.44 54.9472 244.15 54.125 244.15C52.2067 244.15 49.4662 244.008 47.6848 244.292C46.9997 244.435 46.5886 244.15 45.9035 244.861C45.7665 245.003 45.6295 246.707 45.6295 246.849C45.7665 253.382 45.9035 252.672 52.0696 252.814C52.8918 252.814 53.4399 253.524 53.4399 254.093C53.4399 254.661 52.8918 255.087 52.0696 255.087C44.5333 255.229 45.7665 253.951 45.7665 260.626C45.7665 262.756 46.0405 264.603 45.4924 267.017C45.0814 267.443 43.7111 267.301 43.4371 267.301Z" fill="#AC153A"/>
<path d="M122.364 267.301C120.993 267.301 121.542 265.029 121.404 263.751C121.267 258.069 121.267 252.53 121.404 246.849C121.404 244.719 120.719 243.866 118.664 244.008C117.431 244.008 115.512 244.15 114.416 243.866C113.868 243.724 113.594 243.298 113.594 242.73C113.594 242.304 113.731 241.594 114.69 241.594C119.76 241.594 125.789 241.452 130.859 241.594C131.407 241.594 131.681 242.162 131.681 242.872C131.681 243.582 131.407 244.008 130.585 243.866C130.448 243.866 129.626 244.008 129.489 244.008C124.008 244.292 124.008 244.292 124.008 249.832C124.008 254.377 124.008 259.064 124.008 263.609C124.008 264.745 124.282 267.017 123.46 267.017C122.912 267.301 122.638 267.301 122.364 267.301Z" fill="#AC153A"/>
<path d="M292.412 267.301C291.59 267.301 291.727 264.887 291.727 263.751C291.59 258.211 291.59 252.672 291.727 247.133C291.727 245.713 291.727 244.15 290.083 244.008C288.85 244.008 286.52 244.008 285.287 244.008C284.739 244.008 283.917 243.44 283.917 242.872C283.917 242.162 284.328 241.594 284.876 241.594C289.946 241.452 295.975 241.594 301.045 241.594C301.593 241.594 302.004 242.02 302.004 242.73C302.004 243.44 301.73 243.866 301.182 243.866C300.634 243.866 297.345 243.866 297.208 243.866C293.919 243.866 294.468 244.577 294.468 246.707C294.468 251.252 294.468 259.206 294.468 263.751C294.468 264.887 294.742 267.159 293.782 267.159C293.234 267.443 292.686 267.443 292.412 267.301Z" fill="#AC153A"/>
<path d="M276.928 267.301C276.243 267.301 276.106 265.029 276.106 263.893C275.969 257.501 276.106 251.11 276.106 244.719C276.106 244.15 276.243 243.298 276.243 242.73C276.243 242.162 276.928 241.736 277.613 241.736C278.299 241.736 278.71 242.304 278.71 243.156C278.71 243.724 278.71 244.292 278.71 244.861C278.71 250.968 278.71 257.075 278.71 263.325C278.71 264.603 278.847 267.443 278.162 267.301C277.888 267.443 277.202 267.585 276.928 267.301Z" fill="#AC153A"/>
<path d="M442.866 267.301C441.77 266.733 441.907 265.739 441.907 264.887C442.181 263.751 442.592 263.609 443.414 263.609C444.51 263.751 445.059 263.609 445.333 264.887C445.47 265.739 445.47 266.307 444.785 267.017C444.099 267.443 443.551 267.301 442.866 267.301Z" fill="#AC153A"/>
<path d="M239.931 212.478C168.678 212.478 97.5621 212.478 26.3089 212.478C14.6617 212.478 5.61803 205.518 2.32942 194.014C1.78132 191.883 1.37024 189.753 1.37024 187.622C1.37024 165.75 1.37024 144.019 1.23322 122.146C1.23322 109.363 11.6471 96.7228 25.7608 96.7228C58.5098 96.7228 91.2589 96.7228 123.871 96.7228C133.326 96.7228 137.985 93.172 140.451 83.6559C144.973 66.3282 152.509 50.7049 164.019 37.0699C174.57 24.4292 187.314 15.0552 202.387 8.80588C210.745 5.39715 219.241 2.98263 228.147 2.27248C234.45 1.84638 241.028 0.994201 247.331 1.56232C269.118 3.55075 288.85 11.3624 305.567 26.2756C321.051 40.0526 331.327 57.3803 337.768 77.4066C339.001 81.2414 339.96 85.0762 341.467 88.769C343.934 94.7343 349.004 96.7228 354.896 96.7228C387.645 96.7228 420.531 96.7228 453.28 96.7228C464.79 96.7228 473.697 103.114 477.396 114.477C478.219 116.891 478.63 119.448 478.63 122.004C478.767 143.877 478.63 165.75 478.63 187.764C478.63 201.115 467.668 212.62 454.787 212.62C383.123 212.478 311.596 212.478 239.931 212.478ZM239.931 208.643C309.951 208.643 379.834 208.643 449.854 208.643C452.047 208.643 454.239 208.501 456.432 208.217C466.709 207.08 474.793 198.133 474.793 187.338C474.93 165.608 474.93 143.877 474.793 122.146C474.656 110.358 464.927 100.416 453.554 100.558C421.216 100.7 388.878 100.558 356.677 100.558C352.84 100.558 349.004 100.416 345.441 98.5692C339.96 95.7285 337.494 90.6154 335.849 84.9342C332.561 72.8616 328.039 61.3572 321.188 50.8469C303.922 24.1452 279.943 9.08994 249.112 5.82324C235.958 4.40293 223.077 5.96527 210.471 10.0842C195.535 14.9132 182.518 23.151 171.556 34.6554C158.264 48.5744 149.495 65.334 144.425 84.2241C143.466 87.7748 141.684 91.3256 139.492 94.4503C135.655 99.8474 129.763 100.7 123.734 100.7C91.1219 100.7 58.5098 100.7 25.7608 100.7C21.513 100.7 17.6763 101.978 14.2506 104.534C7.39936 109.648 4.9329 116.749 4.9329 125.129C4.9329 145.155 4.9329 165.181 4.9329 185.208C4.9329 187.906 5.20695 190.747 6.0291 193.303C9.18069 203.388 16.8541 208.785 27.6791 208.785C98.5213 208.643 169.226 208.643 239.931 208.643Z" fill="#AC153A"/>
<path d="M399.292 254.235C399.292 250.826 399.155 247.417 399.292 244.008C399.292 243.156 400.114 241.878 400.525 241.736C404.773 241.594 409.158 241.026 413.269 243.44C417.242 245.855 419.298 250.826 418.476 256.507C417.79 261.478 414.228 265.455 409.843 266.165C407.24 266.591 404.636 266.591 402.033 266.733C399.977 266.875 399.018 266.023 399.155 263.751C399.429 260.768 399.292 257.501 399.292 254.235ZM402.033 254.235C402.033 256.933 401.896 259.49 402.033 262.188C402.033 262.898 402.718 264.177 403.129 264.177C406.965 264.461 411.076 264.603 413.68 260.91C416.283 257.501 416.42 253.524 414.776 249.548C413.132 245.429 406.828 242.588 402.855 244.292C402.307 244.576 401.896 245.571 401.896 246.281C401.896 248.979 402.033 251.536 402.033 254.235Z" fill="#AC153A"/>
<path d="M136.614 254.235C136.614 250.684 136.614 246.423 136.751 242.872C136.751 242.162 137.436 241.736 137.985 241.736C138.807 241.736 139.218 242.162 139.355 242.872C139.492 245.003 139.492 247.985 139.355 250.116C139.355 251.678 139.766 252.53 141.41 252.53C144.425 252.388 147.302 252.53 150.317 252.53C151.824 252.53 152.372 251.962 152.372 250.4C152.235 248.127 152.509 245.571 152.509 243.298C152.509 242.304 153.057 241.878 153.742 241.878C154.565 241.878 154.976 242.588 154.976 243.724C155.113 250.968 155.113 258.78 154.976 265.881C154.976 266.591 154.291 266.875 153.468 266.875C152.92 266.875 152.372 266.307 152.372 265.597C152.235 263.183 152.235 260.058 152.235 257.501C152.235 255.797 151.824 254.945 150.043 255.087C147.165 255.229 144.288 255.087 141.41 255.087C139.903 255.087 139.355 255.655 139.355 257.217C139.355 259.774 139.492 263.325 139.355 265.881C139.355 266.591 138.807 266.875 137.985 266.875C137.436 266.875 136.888 266.449 136.888 265.739C136.751 262.188 136.614 257.785 136.614 254.235Z" fill="#AC153A"/>
<path d="M424.505 254.093C424.505 250.826 424.642 247.559 424.505 244.435C424.368 242.304 425.327 241.594 427.245 241.736C429.986 241.878 433.548 241.594 436.289 241.736C436.974 241.736 437.111 242.446 437.248 243.014C437.248 243.582 436.7 244.15 436.015 244.15C433.959 244.292 431.219 244.15 429.301 244.292C428.615 244.292 427.519 244.719 427.519 245.003C427.382 247.275 427.382 249.548 427.519 251.82C427.519 252.104 428.615 252.388 429.164 252.53C430.808 252.672 432.726 252.388 434.37 252.672C434.919 252.672 435.467 253.382 435.467 254.093C435.467 254.661 435.056 255.087 434.508 255.087C433 255.229 430.945 255.229 429.301 255.087C427.656 254.945 427.108 255.797 427.245 257.359C427.382 259.064 427.382 260.768 427.245 262.472C427.108 264.035 427.93 264.603 429.301 264.461C431.493 264.461 434.37 264.461 436.563 264.603C437.111 264.603 437.659 264.745 437.659 265.739C437.659 267.017 437.248 267.159 436.7 267.159C433.685 267.301 429.849 267.159 426.834 267.159C425.19 267.159 424.505 266.307 424.642 264.603C424.642 260.91 424.505 257.501 424.505 254.093Z" fill="#AC153A"/>
<path d="M444.647 245.997C444.647 242.588 446.566 240.316 449.58 240.458C452.458 240.458 454.513 242.872 454.65 245.855C454.65 249.122 452.595 251.252 449.58 251.252C446.292 251.252 444.647 249.406 444.647 245.997ZM452.869 248.695C453.417 248.127 453.965 245.997 453.28 244.008C452.595 242.02 451.088 240.742 448.895 241.31C446.84 241.736 445.744 243.298 445.744 245.429C445.744 247.559 446.155 249.548 448.347 249.974C449.58 250.258 451.636 249.832 452.047 249.548L452.869 248.695Z" fill="#AC153A"/>
<path d="M309.815 241.594C310.911 242.446 306.937 247.417 306.937 249.974C304.882 249.264 306.526 243.724 307.074 242.588C307.622 241.594 308.718 240.884 309.815 241.594Z" fill="#AC153A"/>
<path d="M239.794 203.388C168.267 203.388 96.7399 203.388 25.2127 203.388C17.1282 203.388 10.4139 196.712 10.2769 187.906C10.1399 166.034 10.1399 144.303 10.2769 122.43C10.4139 112.914 16.9911 106.807 26.5829 106.807C59.8801 106.807 93.1773 106.665 126.474 106.949C136.751 107.091 147.028 98.9953 149.906 87.9169C156.072 64.1978 167.856 43.8874 187.177 29.1163C201.29 18.464 217.185 12.9248 234.587 11.9306C246.235 11.3624 257.745 12.6407 268.844 16.3335C280.628 20.3104 291.042 26.5597 300.086 35.2236C314.747 49.1426 324.339 66.4703 329.546 86.2125C331.876 95.1605 336.397 101.978 345.03 105.245C347.359 106.097 349.963 106.665 352.429 106.665C385.864 106.807 419.298 106.807 452.869 106.665C459.583 106.665 464.79 108.937 467.942 115.329C469.038 117.459 469.586 120.158 469.586 122.714C469.723 144.303 469.723 166.034 469.586 187.622C469.586 196.712 463.009 203.388 454.239 203.388C431.219 203.388 408.199 203.388 385.178 203.388C336.808 203.246 288.301 203.246 239.794 203.388ZM240.343 201.825C310.637 201.825 380.931 201.825 451.225 201.825C453.554 201.825 456.021 201.825 458.35 201.115C465.064 198.985 468.49 193.588 468.49 185.492C468.49 165.324 468.49 145.155 468.49 124.845C468.49 114.051 462.872 108.227 452.458 108.227C419.161 108.227 385.864 108.227 352.566 108.227C342.015 108.227 332.15 100.416 329.272 89.9053C326.532 79.9632 323.106 70.3051 318.173 61.3572C309.129 44.7396 296.797 31.3887 280.217 22.8669C261.582 13.3509 241.987 10.9363 221.707 15.1973C201.838 19.3161 185.395 29.6844 172.378 45.7338C161.964 58.5166 155.25 73.1457 151.139 89.0531C148.261 100.274 138.396 108.227 127.297 108.227C93.5884 108.227 59.8801 108.227 26.1719 108.227C18.2244 108.227 12.0582 114.335 11.9212 122.288C11.9212 144.161 11.9212 166.034 11.9212 188.048C11.9212 193.019 14.3877 196.996 18.4984 199.553C21.787 201.683 25.3497 201.683 28.9124 201.683C99.4804 201.825 169.911 201.825 240.343 201.825Z" fill="#AC153A"/>
<path d="M451.91 249.121C450.677 249.263 450.814 247.275 449.443 247.133C448.073 246.707 448.484 249.263 447.662 249.263C446.703 248.695 447.525 245.855 447.662 244.434C447.799 242.73 449.169 242.588 450.128 243.014C450.814 243.298 451.225 244.434 451.499 245.429C451.773 246.707 451.773 247.985 451.91 249.121C451.91 249.121 451.91 249.263 451.91 249.121Z" fill="#AC153A"/>
<path d="M239.931 196.286C169.363 196.286 98.7953 196.286 28.2272 196.286C26.4459 196.286 24.5275 196.286 22.8832 195.576C19.1836 194.156 17.1282 191.315 17.1282 187.196C17.1282 165.608 17.1282 144.019 17.1282 122.572C17.1282 117.317 20.9649 113.624 26.1719 113.624C59.195 113.624 92.2181 113.624 125.378 113.624C130.585 113.624 135.518 112.914 140.177 110.5C148.124 106.381 152.646 99.7054 154.839 91.0415C159.635 72.4355 167.993 55.96 181.422 42.6091C192.521 31.5307 205.675 24.1452 220.748 20.5944C234.176 17.4697 247.742 17.6118 261.033 21.0205C274.325 24.4292 286.109 30.9626 296.249 40.4787C310.911 54.2556 319.817 71.5833 325.024 91.3256C328.724 105.529 339.138 113.624 353.388 113.624C386.686 113.624 419.983 113.624 453.28 113.624C459.035 113.624 462.461 117.033 462.461 123.14C462.461 144.445 462.324 165.75 462.598 187.054C462.598 192.735 458.076 196.428 453.828 196.428C452.047 196.428 450.265 196.428 448.347 196.428C379.012 196.286 309.403 196.286 239.931 196.286ZM246.646 108.511C245.138 109.932 243.905 109.363 242.809 108.369C234.587 102.12 230.066 93.7401 230.066 83.2298C230.066 79.111 230.751 75.1341 231.162 71.0152C231.436 67.8905 233.628 65.7601 236.643 65.476C238.835 65.334 241.028 65.0499 243.083 65.6181C244.727 66.0442 247.057 67.6065 247.194 68.8848C247.468 71.7254 248.701 72.1515 250.894 71.8674C252.264 71.7254 253.634 71.8674 255.141 71.8674C256.1 71.8674 257.197 71.8674 258.019 71.4413C260.622 70.163 263.226 68.7427 265.829 67.0384C266.514 66.6123 267.2 65.6181 267.337 64.7659C267.474 62.6354 267.337 60.505 267.062 58.3745C266.925 56.6701 267.611 56.102 269.118 56.102C272.681 55.96 272.681 55.96 272.681 52.1252C272.681 51.415 272.544 50.7049 272.681 50.1367C272.955 48.1483 272.132 47.2961 270.214 47.5802C268.159 47.8642 266.788 47.1541 265.281 45.5918C261.719 41.7569 257.197 39.9105 251.99 39.9105C241.028 39.9105 229.929 39.7685 218.967 39.9105C210.745 40.0526 205.949 48.7164 207.868 54.8237C208.553 57.0962 208.827 59.3687 209.649 61.6412C209.923 62.4934 210.882 63.4876 211.704 63.9137C213.349 64.7659 215.13 65.192 216.774 65.7601C218.83 66.3282 219.515 67.6065 219.104 69.7369C217.459 78.1167 215.815 86.6386 214.308 95.0184C213.349 100.7 211.567 105.813 207.045 109.648C205.949 110.642 205.401 112.346 204.442 114.05C228.284 114.05 251.305 114.05 274.462 114.05C273.914 111.352 272.681 110.074 270.214 109.932C268.57 109.79 266.925 109.363 264.733 108.937C266.651 107.091 267.885 106.097 268.981 104.818C276.106 96.5807 278.162 86.6386 278.299 75.9863C278.299 74.424 277.476 73.8558 276.106 73.8558C262.678 73.8558 249.112 73.8558 235.684 73.8558C234.313 73.8558 233.491 74.424 233.628 75.9863C233.765 82.2356 234.45 88.485 236.78 94.4503C238.835 100.131 241.987 104.818 246.646 108.511ZM89.0665 138.764C89.2035 138.622 88.5184 138.48 88.2444 138.48C85.2298 138.48 82.2152 138.622 79.2007 138.48C77.2823 138.338 76.1861 139.048 75.0899 140.61C72.4864 144.161 69.8829 147.854 66.8684 151.12C65.9092 152.115 64.2649 152.683 62.8947 152.399C61.6614 152.399 61.6614 150.552 61.5244 149.274C61.5244 146.433 61.3874 143.451 61.5244 140.61C61.5244 139.048 60.9763 138.48 59.469 138.48C54.6731 138.48 49.7402 138.48 44.9443 138.48C43.5741 138.48 43.026 138.906 43.026 140.326C43.026 150.268 43.026 160.068 43.163 170.01C43.163 170.579 44.2592 171.715 44.8073 171.715C49.7402 171.857 54.6731 171.715 59.606 171.857C61.1133 171.857 61.6614 171.147 61.5244 169.726C61.3874 167.88 61.5244 166.034 61.5244 164.045C61.3874 161.773 62.6206 161.347 64.2649 162.057C65.2241 162.483 66.0462 163.193 66.5943 164.045C67.9646 165.892 69.0608 168.164 70.4311 169.868C71.1162 170.721 72.4864 171.715 73.4456 171.715C79.3377 171.857 85.0928 171.857 90.9849 171.857C91.533 171.857 92.6292 171.857 93.1773 171.431C86.7371 162.341 85.9149 156.376 78.2415 151.973C81.8042 147.57 85.6409 142.883 89.0665 138.764ZM371.887 171.573C371.887 171.005 372.024 170.721 371.887 170.579C366.68 160.352 361.61 150.268 356.403 140.184C355.992 139.332 354.485 138.48 353.526 138.48C347.633 138.338 341.741 138.338 335.712 138.48C335.164 138.48 334.616 138.622 333.794 138.764C334.068 139.474 334.205 139.9 334.479 140.184C336.397 141.888 335.712 143.593 334.616 145.581C330.642 152.825 326.669 160.068 322.832 167.312C322.147 168.59 321.599 169.868 320.639 171.715C323.928 171.715 326.532 171.715 329.272 171.715C329.82 171.715 330.505 171.005 330.642 170.579C332.15 165.892 335.438 165.181 339.549 165.75C340.782 165.892 342.152 165.892 343.523 165.75C346.537 165.323 348.593 166.46 349.552 169.584C350.1 171.431 351.333 172.141 353.251 171.999C358.732 171.857 364.076 171.999 369.557 171.999C370.38 171.715 371.065 171.573 371.887 171.573ZM421.901 152.683C420.394 152.257 419.298 151.973 418.202 151.689C412.309 150.552 406.554 150.552 401.347 154.245C395.181 158.506 395.866 167.028 402.444 170.437C406.28 172.425 410.254 172.709 414.502 172.283C417.79 171.999 420.668 170.437 424.368 171.573C427.93 172.709 432.041 171.715 435.878 171.857C437.385 171.857 438.07 171.289 438.07 169.584C438.07 161.205 438.07 152.825 438.07 144.587C438.07 142.599 437.248 142.03 435.604 142.03C431.767 142.172 428.067 142.172 424.231 142.03C422.312 142.03 421.901 142.883 421.901 144.587C422.038 147.144 421.901 149.7 421.901 152.683ZM208.142 152.399C208.142 149.842 208.142 147.002 208.142 144.019C208.142 142.457 207.593 141.888 206.086 141.888C201.701 142.03 197.18 141.888 192.795 141.888C191.287 141.888 190.602 142.457 190.602 144.161C190.602 152.541 190.602 161.063 190.602 169.442C190.602 171.147 191.287 171.715 192.795 171.715C197.18 171.715 201.701 171.715 206.086 171.715C207.73 171.715 208.142 171.005 208.142 169.442C208.005 167.17 208.142 164.897 208.142 162.483C208.142 160.21 209.101 158.79 211.156 158.648C213.074 158.364 214.445 160.068 214.582 162.483C214.719 164.755 214.719 167.028 214.582 169.442C214.582 171.005 214.993 171.857 216.637 171.857C220.474 171.857 224.311 171.857 228.284 171.857C229.792 171.857 230.203 171.147 230.203 169.726C230.203 166.176 230.203 162.625 230.203 158.932C230.203 156.518 229.106 154.529 227.188 153.393C225.27 152.257 222.94 151.262 220.748 151.262C216.637 151.262 212.526 151.973 208.142 152.399ZM277.202 161.773C277.202 164.471 277.202 167.028 277.202 169.726C277.202 171.005 277.613 171.857 278.984 171.857C283.506 171.857 288.027 171.857 292.549 171.715C293.097 171.715 294.194 170.579 294.194 170.01C294.468 167.738 294.194 165.465 294.331 163.193C294.331 160.778 295.838 158.932 297.619 158.79C299.538 158.79 300.908 160.352 301.045 163.051C301.182 165.323 301.182 167.454 301.045 169.726C301.045 171.289 301.593 171.999 303.237 171.999C307.074 171.999 310.774 171.999 314.61 171.999C315.981 171.999 316.803 171.573 316.666 169.868C316.666 166.318 316.666 162.909 316.666 159.358C316.529 155.807 314.61 153.393 311.322 152.257C307.348 150.836 303.237 150.978 299.126 151.973C297.071 152.399 295.29 152.967 292.96 152.683C288.438 151.973 283.643 152.399 278.984 152.541C278.436 152.541 277.339 153.677 277.339 154.245C277.065 156.518 277.202 159.216 277.202 161.773ZM251.853 164.329C252.675 164.329 253.36 164.187 254.045 164.187C259.526 164.187 264.87 164.045 270.351 164.187C271.995 164.187 272.544 163.477 272.406 161.915C272.132 158.08 270.351 154.955 267.062 153.393C258.019 148.99 248.975 149.274 240.068 153.961C237.739 155.239 235.547 156.802 234.999 159.784C234.039 164.471 236.369 168.732 241.165 170.579C250.071 173.987 259.115 173.135 268.159 171.147C271.036 170.437 271.721 168.732 271.036 165.323C258.293 167.88 254.045 167.738 251.853 164.329ZM141.684 152.115C141.684 150.836 141.547 149.984 141.684 149.132C141.958 146.86 141.136 146.007 138.807 146.149C135.381 146.291 131.955 146.291 128.53 146.149C126.474 146.007 125.378 146.86 125.652 149.132C126.063 151.689 124.967 152.541 122.638 152.257C120.993 151.973 120.171 152.825 120.445 154.671C120.582 155.381 120.445 156.091 120.445 156.66C120.308 158.364 121.13 159.074 122.638 158.932C125.241 158.506 125.926 159.926 125.789 162.341C125.652 163.193 125.789 164.187 125.789 165.181C126.2 169.3 127.571 171.005 131.544 172.141C135.792 173.277 140.177 172.993 144.425 171.857C148.399 170.863 148.947 170.01 147.713 165.465C147.165 165.465 146.617 165.608 146.069 165.608C143.192 166.034 141.821 165.181 141.684 162.767C141.41 159.216 141.547 159.074 145.247 158.932C145.384 158.932 145.521 158.932 145.795 158.932C148.947 159.216 147.987 156.944 148.124 155.239C148.261 153.393 147.987 151.973 145.658 152.399C144.425 152.257 143.192 152.115 141.684 152.115ZM184.71 159.358C185.669 154.813 185.395 153.393 182.518 152.541C175.255 150.552 167.993 150.268 160.731 152.399C157.579 153.393 154.976 155.239 153.468 158.506C151.413 163.051 153.88 168.164 159.224 170.437C166.212 173.419 173.474 172.993 180.736 171.573C185.121 170.721 186.08 168.732 184.573 164.045C184.025 164.187 183.888 164.471 182.792 164.613C179.64 164.755 176.489 165.323 173.337 164.897C172.104 164.755 170.049 162.909 170.049 161.773C170.049 160.494 171.967 159.074 173.2 158.648C175.118 158.08 177.174 158.08 179.229 158.222C181.011 158.364 182.929 159.074 184.71 159.358ZM115.101 161.915C115.101 159.216 115.238 156.66 115.101 153.961C115.101 153.251 114.005 152.257 113.457 152.257C109.072 152.115 104.687 152.257 100.44 152.115C99.0694 152.115 98.5213 152.683 98.5213 154.103C98.5213 159.216 98.5213 164.329 98.5213 169.442C98.5213 171.147 99.2064 171.715 100.714 171.715C104.687 171.715 108.798 171.715 112.772 171.715C114.416 171.715 115.101 171.147 115.101 169.3C115.101 166.886 115.101 164.471 115.101 161.915ZM376.82 161.915C376.82 164.329 376.82 166.886 376.82 169.3C376.82 171.005 377.368 171.857 379.012 171.715C382.986 171.715 387.097 171.715 391.07 171.715C392.578 171.715 393.126 171.147 393.126 169.584C393.126 164.471 393.126 159.358 393.126 154.245C393.126 152.683 392.715 152.115 391.207 152.115C387.097 152.115 382.986 152.115 378.875 152.115C377.231 152.115 376.683 152.825 376.82 154.387C376.82 156.944 376.82 159.358 376.82 161.915ZM385.041 150.978C387.371 150.978 389.7 150.268 391.619 149.132C393.811 147.712 393.674 144.871 391.482 143.167C388.33 140.752 381.89 140.752 378.601 143.167C376.135 145.013 376.135 148.138 378.875 149.558C380.657 150.41 382.575 150.978 385.041 150.978ZM107.017 151.262C109.62 151.262 111.676 150.268 113.594 149.132C115.786 147.854 115.649 144.871 113.594 143.451C110.305 140.894 103.865 140.894 100.577 143.309C98.2472 145.013 98.1102 147.996 100.577 149.558C102.495 150.41 104.55 151.262 107.017 151.262ZM449.854 150.268C453.28 150.268 455.472 147.996 455.472 144.445C455.472 141.036 453.28 138.48 450.128 138.48C446.84 138.338 444.51 140.894 444.51 144.445C444.51 147.996 446.566 150.268 449.854 150.268Z" fill="#AC153A"/>
<path d="M239.794 59.6528C232.258 59.6528 224.859 59.6528 217.322 59.6528C216.226 59.6528 214.719 60.0789 214.719 57.9484C214.719 55.96 216.226 56.3861 217.322 56.3861C232.395 56.3861 247.605 56.3861 262.678 56.3861C263.5 56.3861 264.733 56.9542 264.87 57.6644C265.418 59.5108 264.185 59.6528 262.678 59.6528C255.141 59.5108 247.468 59.6528 239.794 59.6528Z" fill="#AC153A"/>
<path d="M247.879 65.05C247.879 64.4818 249.249 64.0557 249.934 64.0557C254.593 63.9137 259.252 64.0557 264.048 64.0557C264.185 64.0557 265.007 64.0557 265.007 64.6239C264.733 65.476 263.911 65.6181 263.5 65.6181C258.43 65.6181 253.223 65.6181 248.153 65.6181C248.016 65.7601 247.879 65.476 247.879 65.05Z" fill="#AC153A"/>
<path d="M343.934 158.648C341.467 158.648 339.686 158.648 337.22 158.648C338.316 156.376 339.275 154.529 340.508 152.115C341.878 154.529 342.838 156.376 343.934 158.648Z" fill="#AC153A"/>
<path d="M417.516 165.039C415.324 165.039 413.68 163.619 413.68 161.631C413.68 159.642 415.324 158.364 417.653 158.364C420.531 158.364 421.764 159.5 422.038 161.631C422.312 163.761 420.942 164.755 417.516 165.039Z" fill="#AC153A"/>
<path d="M256.786 158.364C255.004 158.364 253.086 158.364 251.305 158.364C251.168 158.364 251.031 157.796 251.168 157.512C251.442 156.802 253.36 156.376 254.182 156.376C255.415 156.376 256.237 156.802 256.923 157.228C257.197 157.654 257.197 158.364 256.786 158.364Z" fill="#AC153A"/>
<path d="M452.869 147.286C452.458 145.865 452.047 145.013 451.91 144.019C451.773 142.883 451.636 141.746 451.636 140.61C453.965 141.178 454.787 143.735 452.869 147.286Z" fill="#AC153A"/>
<path d="M447.662 141.178C447.662 143.593 447.662 145.439 447.662 147.286C445.47 146.149 445.333 143.877 447.662 141.178Z" fill="#AC153A"/>
<path d="M451.225 142.457C451.499 143.735 450.677 144.445 449.854 144.303C449.169 144.161 448.621 144.445 448.621 142.741C448.621 141.888 449.306 141.036 449.854 141.178C450.402 141.462 450.951 141.604 451.225 142.457Z" fill="#AC153A"/>
<path d="M451.636 147.712H448.758L448.895 145.155L451.088 145.581L451.636 147.712Z" fill="#AC153A"/>
</svg>
